<?xml version="1.0" encoding="UTF-8" standalone="no"?>
<!-- Created with Inkscape (http://www.inkscape.org/) -->

<svg
   width="5.8208303mm"
   height="5.0138516mm"
   viewBox="0 0 5.8208305 5.0138517"
   version="1.1"
   id="svg8"
   inkscape:version="1.2.2 (b0a8486541, 2022-12-01)"
   sodipodi:docname="palantir-manual.svg"
   xml:space="preserve"
   xmlns:inkscape="http://www.inkscape.org/namespaces/inkscape"
   xmlns:sodipodi="http://sodipodi.sourceforge.net/DTD/sodipodi-0.dtd"
   xmlns="http://www.w3.org/2000/svg"
   xmlns:svg="http://www.w3.org/2000/svg"
   xmlns:rdf="http://www.w3.org/1999/02/22-rdf-syntax-ns#"
   xmlns:cc="http://creativecommons.org/ns#"
   xmlns:dc="http://purl.org/dc/elements/1.1/"><defs
     id="defs2" /><sodipodi:namedview
     id="base"
     pagecolor="#ffffff"
     bordercolor="#666666"
     borderopacity="1.0"
     inkscape:pageopacity="0.0"
     inkscape:pageshadow="2"
     inkscape:zoom="6.3530499"
     inkscape:cx="87.359616"
     inkscape:cy="5.9813791"
     inkscape:document-units="mm"
     inkscape:current-layer="layer1"
     showgrid="false"
     inkscape:window-width="1920"
     inkscape:window-height="1018"
     inkscape:window-x="0"
     inkscape:window-y="0"
     inkscape:window-maximized="1"
     inkscape:showpageshadow="2"
     inkscape:pagecheckerboard="0"
     inkscape:deskcolor="#d1d1d1" /><metadata
     id="metadata5"><rdf:RDF><cc:Work
         rdf:about=""><dc:format>image/svg+xml</dc:format><dc:type
           rdf:resource="http://purl.org/dc/dcmitype/StillImage" /></cc:Work></rdf:RDF></metadata><g
     inkscape:label="Layer 1"
     inkscape:groupmode="layer"
     id="layer1"
     transform="translate(-141.43551,-43.634653)"><g
       id="g1088-9"
       transform="translate(-26.446142,-18.272158)" /><g
       style="fill:#000000;fill-opacity:1"
       id="g754"
       transform="matrix(0.00661458,0,0,0.00661458,141.17093,48.926317)"><path
         d="M 480,-200 Q 329,-200 210.5,-283.5 92,-367 40,-500 92,-633 210.5,-716.5 329,-800 480,-800 q 151,0 269.5,83.5 Q 868,-633 920,-500 868,-367 749.5,-283.5 631,-200 480,-200 Z m -317,68 Q 125,-158 95,-190.5 65,-223 45,-261 l 70,-38 q 16,29 40.5,55 24.5,26 55.5,47 z m 71,39 48,-67 q 36,15 76,25 40,10 82,13 v 80 Q 384,-46 332.5,-59 281,-72 234,-93 Z m 246,-227 q 75,0 127.5,-52.5 Q 660,-425 660,-500 660,-575 607.5,-627.5 555,-680 480,-680 405,-680 352.5,-627.5 300,-575 300,-500 q 0,75 52.5,127.5 Q 405,-320 480,-320 Z m 0,-72 q -45,0 -76.5,-31.5 Q 372,-455 372,-500 q 0,-45 31.5,-76.5 31.5,-31.5 76.5,-31.5 45,0 76.5,31.5 31.5,31.5 31.5,76.5 0,45 -31.5,76.5 Q 525,-392 480,-392 Z m 40,350 v -80 q 42,-3 82,-13 40,-10 76,-25 l 48,67 Q 691,-75 634,-60.5 577,-46 520,-42 Z m 277,-90 -48,-66 q 31,-21 55.5,-46.5 Q 829,-270 845,-299 l 70,38 q -20,38 -50,70.5 -30,32.5 -68,58.5 z"
         id="path745"
         style="fill:#000000;fill-opacity:1" /></g></g></svg>
